<svg width="17" height="16" viewBox="0 0 17 16" fill="none" xmlns="http://www.w3.org/2000/svg">
<path fill-rule="evenodd" clip-rule="evenodd" d="M8.50016 13.3333C7.08567 13.3333 5.72912 12.7714 4.72893 11.7712C3.72873 10.771 3.16683 9.41447 3.16683 7.99998C3.16683 6.58549 3.72873 5.22894 4.72893 4.22874C5.72912 3.22855 7.08567 2.66665 8.50016 2.66665C9.91465 2.66665 11.2712 3.22855 12.2714 4.22874C13.2716 5.22894 13.8335 6.58549 13.8335 7.99998C13.8335 9.41447 13.2716 10.771 12.2714 11.7712C11.2712 12.7714 9.91465 13.3333 8.50016 13.3333ZM1.8335 7.99998C1.8335 4.31798 4.81816 1.33331 8.50016 1.33331C12.1822 1.33331 15.1668 4.31798 15.1668 7.99998C15.1668 11.682 12.1822 14.6666 8.50016 14.6666C4.81816 14.6666 1.8335 11.682 1.8335 7.99998ZM9.16683 4.66665C9.16683 4.48984 9.09659 4.32027 8.97157 4.19524C8.84654 4.07022 8.67697 3.99998 8.50016 3.99998C8.32335 3.99998 8.15378 4.07022 8.02876 4.19524C7.90373 4.32027 7.8335 4.48984 7.8335 4.66665V7.99998C7.8335 8.17679 7.90373 8.34636 8.02876 8.47138C8.15378 8.59641 8.32335 8.66665 8.50016 8.66665H10.5002C10.677 8.66665 10.8465 8.59641 10.9716 8.47138C11.0966 8.34636 11.1668 8.17679 11.1668 7.99998C11.1668 7.82317 11.0966 7.6536 10.9716 7.52857C10.8465 7.40355 10.677 7.33331 10.5002 7.33331H9.16683V4.66665Z" fill="#FF6C0B"/>
</svg>
